<svg width="45" height="29" viewBox="0 0 45 29" fill="none" xmlns="http://www.w3.org/2000/svg">
<path d="M35.5313 19.7218C34.6482 17.8806 31.4888 15.3249 28.4363 12.8555C26.7338 11.4793 25.125 10.178 24.0994 9.15245C23.8425 8.8937 23.4582 8.81117 23.1188 8.93307C22.487 9.16185 22.0969 9.33807 21.7895 9.47492C21.3208 9.68489 21.1633 9.75617 20.5313 9.81989C20.2519 9.84801 20.0007 9.99804 19.8451 10.2305C18.5194 12.2124 17.1469 12.0436 16.2301 11.7362C15.9376 11.6387 15.8851 11.513 15.857 11.393C15.6601 10.5699 16.6482 8.65367 17.9288 7.37301C20.9757 4.32426 22.5469 3.56111 25.8657 5.04426C29.6307 6.72798 33.4032 8.04617 33.4407 8.05926C33.9339 8.22986 34.4645 7.97111 34.6351 7.48173C34.8038 6.99236 34.5469 6.45798 34.0575 6.28739C34.02 6.27429 30.3225 4.98239 26.6325 3.33048C22.3332 1.40858 19.9744 2.6742 16.605 6.04551C15.3225 7.32801 13.5806 9.92298 14.0306 11.8262C14.2237 12.6362 14.7938 13.2362 15.6412 13.5155C17.7656 14.2168 19.7043 13.5455 21.1481 11.6293C21.7443 11.5374 22.0687 11.4024 22.5562 11.1831C22.7324 11.1043 22.9387 11.0125 23.2124 10.9018C24.285 11.9087 25.7324 13.0805 27.2568 14.3124C30.0131 16.5418 33.1387 19.0693 33.8419 20.5318C34.1888 21.2537 33.8156 21.7243 33.5624 21.9399C33.1912 22.2587 32.6831 22.3599 32.4075 22.1668C32.1037 21.9586 31.7081 21.9455 31.395 22.133C31.08 22.3205 30.9038 22.6749 30.9431 23.0386C31.0068 23.6349 30.4612 23.9762 30.225 24.0943C29.6249 24.398 28.9987 24.3456 28.7643 24.128C28.5018 23.8843 28.1249 23.813 27.7912 23.9368C27.4575 24.0624 27.2249 24.3699 27.1912 24.7261C27.1349 25.3411 26.6793 25.9317 26.0849 26.1624C25.798 26.2711 25.3818 26.3367 25.0087 25.9955C24.7762 25.7855 24.4536 25.7048 24.1518 25.7779C23.8462 25.8529 23.6006 26.0742 23.4937 26.3686C23.4581 26.4623 23.3774 26.6873 22.4999 26.6873C21.8755 26.6873 20.7524 26.2655 20.2031 25.9017C19.5449 25.4686 15.418 22.3898 11.8537 19.4048C11.3531 18.9829 10.4868 18.0791 9.72185 17.2804C9.04307 16.5716 8.42248 15.9285 8.1037 15.6585C7.70432 15.321 7.1137 15.3717 6.78182 15.7692C6.4481 16.1648 6.49679 16.7574 6.89247 17.0911C7.18313 17.3367 7.74563 17.931 8.36623 18.5779C9.2025 19.4516 10.0668 20.3554 10.6481 20.843C14.1394 23.7661 18.3357 26.9217 19.1718 27.4711C19.8619 27.9248 21.3487 28.5623 22.5 28.5623C23.4243 28.5623 24.135 28.3504 24.6281 27.9361C25.2881 28.193 26.0381 28.1948 26.76 27.9136C27.6131 27.5836 28.3143 26.918 28.7118 26.1117C29.4506 26.2692 30.2963 26.1586 31.0649 25.7724C31.8169 25.3937 32.3605 24.8143 32.6305 24.1374C33.3768 24.1767 34.1455 23.9124 34.7811 23.3667C35.8575 22.4462 36.1537 21.0137 35.5313 19.7218Z" fill="#BA1117"/>
<path d="M18.75 4.1875H10.3125C9.79497 4.1875 9.37494 4.60753 9.37494 5.12503C9.37494 5.64253 9.79497 6.06256 10.3125 6.06256H18.75C19.2675 6.06256 19.6875 5.64253 19.6875 5.12503C19.6875 4.60753 19.2675 4.1875 18.75 4.1875Z" fill="#BA1117"/>
<path d="M38.2781 17.7266C37.9874 17.2972 37.4062 17.1791 36.9769 17.4716L34.2357 19.3128C33.8063 19.6016 33.6919 20.1847 33.9807 20.6141C34.1625 20.8822 34.4588 21.0285 34.7607 21.0285C34.9389 21.0285 35.1207 20.9778 35.282 20.8691L38.0232 19.0279C38.4525 18.7391 38.5668 18.156 38.2781 17.7266Z" fill="#BA1117"/>
<path d="M32.4581 22.2003C31.7869 21.6716 28.785 18.5985 26.9287 16.6635C26.5705 16.2884 25.9762 16.2753 25.603 16.6353C25.228 16.9935 25.2168 17.5878 25.5749 17.961C26.0568 18.4635 30.3074 22.8941 31.2955 23.6741C31.4661 23.8091 31.6724 23.8748 31.8749 23.8748C32.1505 23.8748 32.4262 23.751 32.6136 23.5166C32.9344 23.1115 32.865 22.5209 32.4581 22.2003Z" fill="#BA1117"/>
<path d="M28.7118 24.0811C27.5887 23.183 24.7669 20.1848 24.1293 19.4911C23.7768 19.1086 23.1861 19.0861 22.8036 19.4349C22.423 19.7855 22.3968 20.3799 22.7474 20.7605C22.7811 20.7961 26.1487 24.4318 27.5399 25.5456C27.7124 25.6824 27.9205 25.7499 28.1249 25.7499C28.3987 25.7499 28.6724 25.628 28.858 25.3993C29.1806 24.9942 29.115 24.4036 28.7118 24.0811Z" fill="#BA1117"/>
<path d="M24.9806 25.9692C23.6437 24.8423 20.9081 21.9304 20.3738 21.3585C20.0194 20.9798 19.425 20.9591 19.0481 21.3135C18.6694 21.6679 18.6506 22.2604 19.0031 22.6392C19.7719 23.4623 22.3893 26.2373 23.7713 27.4035C23.9475 27.5516 24.1612 27.6248 24.375 27.6248C24.6412 27.6248 24.9075 27.5104 25.0931 27.291C25.4269 26.8935 25.3762 26.3029 24.9806 25.9692Z" fill="#BA1117"/>
<path d="M10.9575 2.56929C9.3506 1.04676 2.925 0.553608 0.993779 0.439263C0.727559 0.426167 0.481904 0.514234 0.294434 0.692388C0.106875 0.868609 0 1.11611 0 1.37486V18.2499C0 18.7674 0.420029 19.1874 0.937529 19.1874H6.56253C6.96753 19.1874 7.32753 18.9268 7.45313 18.5405C7.58997 18.1205 10.8207 8.20555 11.2462 3.33051C11.2707 3.04548 11.1656 2.76423 10.9575 2.56929ZM5.87812 17.3124H1.87497V2.37989C4.88812 2.61798 8.13937 3.13549 9.32062 3.70924C8.82378 7.81549 6.57562 15.1111 5.87812 17.3124Z" fill="#BA1117"/>
<path d="M44.0624 2.31201C36.7011 2.31201 32.6174 4.19639 32.4468 4.27514C32.2031 4.38948 32.0211 4.60139 31.9462 4.85829C31.8712 5.11519 31.9086 5.39082 32.0493 5.61951C33.208 7.48517 36.8361 17.8464 37.5336 20.3739C37.6461 20.7807 38.0155 21.062 38.4374 21.062H44.0624C44.5799 21.062 45 20.6419 45 20.1244V3.24945C45 2.73011 44.5799 2.31201 44.0624 2.31201ZM43.125 19.187H39.1387C38.25 16.292 35.6249 8.74323 34.1606 5.62329C35.5912 5.13769 38.6644 4.30326 43.125 4.19832V19.187Z" fill="#BA1117"/>
</svg>
