<svg width="208" height="44" viewBox="0 0 208 44" fill="none" xmlns="http://www.w3.org/2000/svg">
<path d="M78.625 21.85C79.6583 22.1833 80.4417 22.7 80.975 23.4C81.525 24.1 81.8 24.9667 81.8 26C81.8 27.55 81.1917 28.775 79.975 29.675C78.775 30.5583 77.0667 31 74.85 31H65.875V13.5H74.375C76.475 13.5 78.1 13.9 79.25 14.7C80.4167 15.4833 81 16.6 81 18.05C81 18.9 80.7917 19.65 80.375 20.3C79.975 20.95 79.3917 21.4667 78.625 21.85ZM70.75 20.5H73.9C75.3 20.5 76 19.925 76 18.775C76 17.625 75.3 17.05 73.9 17.05H70.75V20.5ZM74.65 27.45C76.0833 27.45 76.8 26.8417 76.8 25.625C76.8 24.4417 76.0833 23.85 74.65 23.85H70.75V27.45H74.65ZM90.0035 31.225C88.5535 31.225 87.2452 30.925 86.0785 30.325C84.9118 29.725 83.9952 28.8917 83.3285 27.825C82.6785 26.7583 82.3535 25.55 82.3535 24.2C82.3535 22.8667 82.6785 21.6667 83.3285 20.6C83.9952 19.5333 84.9035 18.7083 86.0535 18.125C87.2202 17.525 88.5368 17.225 90.0035 17.225C91.4702 17.225 92.7868 17.525 93.9535 18.125C95.1202 18.7083 96.0285 19.5333 96.6785 20.6C97.3285 21.65 97.6535 22.85 97.6535 24.2C97.6535 25.55 97.3285 26.7583 96.6785 27.825C96.0285 28.8917 95.1202 29.725 93.9535 30.325C92.7868 30.925 91.4702 31.225 90.0035 31.225ZM90.0035 27.45C90.8368 27.45 91.5202 27.1667 92.0535 26.6C92.5868 26.0167 92.8535 25.2167 92.8535 24.2C92.8535 23.2 92.5868 22.4167 92.0535 21.85C91.5202 21.2833 90.8368 21 90.0035 21C89.1702 21 88.4868 21.2833 87.9535 21.85C87.4202 22.4167 87.1535 23.2 87.1535 24.2C87.1535 25.2167 87.4202 26.0167 87.9535 26.6C88.4868 27.1667 89.1702 27.45 90.0035 27.45ZM112.562 17.45V31H107.812V21.225H104.387L104.287 23.3C104.22 25.0667 104.045 26.525 103.762 27.675C103.479 28.825 103.012 29.725 102.362 30.375C101.712 31.0083 100.82 31.325 99.6871 31.325C99.1038 31.325 98.3371 31.2167 97.3871 31L97.5871 27.125C97.8871 27.1583 98.0871 27.175 98.1871 27.175C98.7038 27.175 99.0954 27.0083 99.3621 26.675C99.6288 26.3417 99.8121 25.9 99.9121 25.35C100.012 24.7833 100.079 24.0333 100.112 23.1L100.312 17.45H112.562ZM126.229 21.225H119.604V31H114.879V17.45H126.229V21.225ZM132.737 17.225C134.987 17.225 136.704 17.7417 137.887 18.775C139.071 19.7917 139.662 21.3583 139.662 23.475V31H135.237V29.25C134.554 30.5667 133.221 31.225 131.237 31.225C130.187 31.225 129.279 31.0417 128.512 30.675C127.746 30.3083 127.162 29.8167 126.762 29.2C126.379 28.5667 126.187 27.85 126.187 27.05C126.187 25.7667 126.679 24.775 127.662 24.075C128.646 23.3583 130.162 23 132.212 23H134.912C134.829 21.5667 133.871 20.85 132.037 20.85C131.387 20.85 130.729 20.9583 130.062 21.175C129.396 21.375 128.829 21.6583 128.362 22.025L126.762 18.8C127.512 18.3 128.421 17.9167 129.487 17.65C130.571 17.3667 131.654 17.225 132.737 17.225ZM132.562 28.225C133.112 28.225 133.596 28.0917 134.012 27.825C134.429 27.5583 134.729 27.1667 134.912 26.65V25.475H132.862C131.479 25.475 130.787 25.9333 130.787 26.85C130.787 27.2667 130.946 27.6 131.262 27.85C131.579 28.1 132.012 28.225 132.562 28.225ZM150.52 31.35C148.67 31.35 147.003 30.9583 145.52 30.175C144.053 29.3917 142.895 28.3083 142.045 26.925C141.212 25.5417 140.795 23.9833 140.795 22.25C140.795 20.5167 141.212 18.9583 142.045 17.575C142.895 16.1917 144.053 15.1083 145.52 14.325C147.003 13.5417 148.67 13.15 150.52 13.15C152.37 13.15 154.028 13.5417 155.495 14.325C156.978 15.1083 158.137 16.1917 158.97 17.575C159.82 18.9583 160.245 20.5167 160.245 22.25C160.245 23.9833 159.82 25.5417 158.97 26.925C158.137 28.3083 156.978 29.3917 155.495 30.175C154.028 30.9583 152.37 31.35 150.52 31.35ZM150.52 27.25C151.403 27.25 152.203 27.0417 152.92 26.625C153.637 26.2083 154.203 25.625 154.62 24.875C155.037 24.1083 155.245 23.2333 155.245 22.25C155.245 21.2667 155.037 20.4 154.62 19.65C154.203 18.8833 153.637 18.2917 152.92 17.875C152.203 17.4583 151.403 17.25 150.52 17.25C149.637 17.25 148.837 17.4583 148.12 17.875C147.403 18.2917 146.837 18.8833 146.42 19.65C146.003 20.4 145.795 21.2667 145.795 22.25C145.795 23.2333 146.003 24.1083 146.42 24.875C146.837 25.625 147.403 26.2083 148.12 26.625C148.837 27.0417 149.637 27.25 150.52 27.25ZM168.092 26.175H166.492V31H161.742V17.45H166.492V22.45H168.192L171.517 17.45H176.542L171.992 23.95L176.842 31H171.242L168.092 26.175ZM177.541 17.45H182.266V22.475H187.141V17.45H191.891V31H187.141V26.25H182.266V31H177.541V17.45ZM199.745 17.225C201.995 17.225 203.712 17.7417 204.895 18.775C206.078 19.7917 206.67 21.3583 206.67 23.475V31H202.245V29.25C201.562 30.5667 200.228 31.225 198.245 31.225C197.195 31.225 196.287 31.0417 195.52 30.675C194.753 30.3083 194.17 29.8167 193.77 29.2C193.387 28.5667 193.195 27.85 193.195 27.05C193.195 25.7667 193.687 24.775 194.67 24.075C195.653 23.3583 197.17 23 199.22 23H201.92C201.837 21.5667 200.878 20.85 199.045 20.85C198.395 20.85 197.737 20.9583 197.07 21.175C196.403 21.375 195.837 21.6583 195.37 22.025L193.77 18.8C194.52 18.3 195.428 17.9167 196.495 17.65C197.578 17.3667 198.662 17.225 199.745 17.225ZM199.57 28.225C200.12 28.225 200.603 28.0917 201.02 27.825C201.437 27.5583 201.737 27.1667 201.92 26.65V25.475H199.87C198.487 25.475 197.795 25.9333 197.795 26.85C197.795 27.2667 197.953 27.6 198.27 27.85C198.587 28.1 199.02 28.225 199.57 28.225Z" fill="#CE1414"/>
<path d="M22 3H4C3.44771 3 3 3.44772 3 4V40C3 40.5523 3.44772 41 4 41H22M22 3H40C40.5523 3 41 3.44772 41 4V40C41 40.5523 40.5523 41 40 41H22M22 3V20.9008M22 41V20.9008M3 20.9008H22" stroke="#CE1414" stroke-width="6"/>
</svg>
