<svg width="398" height="255" viewBox="0 0 398 255" fill="none" xmlns="http://www.w3.org/2000/svg">
<rect x="0.5" y="0.5" width="194" height="118" stroke="#454545"/>
<rect x="203.5" y="0.5" width="194" height="118" stroke="#454545"/>
<rect x="0.5" y="136.5" width="194" height="118" stroke="#454545"/>
<rect x="203.5" y="136.5" width="194" height="118" stroke="#454545"/>
<path d="M32.2344 87.6094C32.2344 88.724 32.0417 89.7031 31.6562 90.5469C31.2708 91.3854 30.7188 92.0312 30 92.4844C29.2865 92.9323 28.4635 93.1562 27.5312 93.1562C26.6094 93.1562 25.7865 92.9323 25.0625 92.4844C24.3438 92.0312 23.7865 91.388 23.3906 90.5547C23 89.7214 22.8021 88.7604 22.7969 87.6719V87.0312C22.7969 85.9219 22.9922 84.9427 23.3828 84.0938C23.7786 83.2448 24.3333 82.5964 25.0469 82.1484C25.7656 81.6953 26.5885 81.4688 27.5156 81.4688C28.4427 81.4688 29.263 81.6927 29.9766 82.1406C30.6953 82.5833 31.25 83.224 31.6406 84.0625C32.0312 84.8958 32.2292 85.8672 32.2344 86.9766V87.6094ZM30.2578 87.0156C30.2578 85.7552 30.0182 84.7891 29.5391 84.1172C29.0651 83.4453 28.3906 83.1094 27.5156 83.1094C26.6615 83.1094 25.9922 83.4453 25.5078 84.1172C25.0286 84.7839 24.7839 85.7292 24.7734 86.9531V87.6094C24.7734 88.8594 25.0156 89.8255 25.5 90.5078C25.9896 91.1901 26.6667 91.5312 27.5312 91.5312C28.4062 91.5312 29.0781 91.1979 29.5469 90.5312C30.0208 89.8646 30.2578 88.8906 30.2578 87.6094V87.0156ZM41.3475 93H39.4491V86.0781H36.1522V93H34.2537V84.5469H41.3475V93ZM50.7106 84.5469V93H48.8122V86.0781H46.4216L46.2653 89.0234C46.1664 90.4401 45.8929 91.4583 45.445 92.0781C45.0023 92.6927 44.3226 93 43.4059 93H42.82L42.8122 91.4219L43.2028 91.3828C43.6195 91.3255 43.9216 91.0729 44.1091 90.625C44.3018 90.1719 44.4242 89.349 44.4762 88.1562L44.6325 84.5469H50.7106ZM57.9409 93C57.8576 92.8385 57.7847 92.5755 57.7222 92.2109C57.118 92.8411 56.3784 93.1562 55.5034 93.1562C54.6545 93.1562 53.9618 92.9141 53.4253 92.4297C52.8889 91.9453 52.6206 91.3464 52.6206 90.6328C52.6206 89.7318 52.954 89.0417 53.6206 88.5625C54.2925 88.0781 55.2508 87.8359 56.4956 87.8359H57.6597V87.2812C57.6597 86.8438 57.5373 86.4948 57.2925 86.2344C57.0477 85.9688 56.6753 85.8359 56.1753 85.8359C55.743 85.8359 55.3889 85.9453 55.1128 86.1641C54.8368 86.3776 54.6987 86.651 54.6987 86.9844H52.8003C52.8003 86.5208 52.954 86.0885 53.2612 85.6875C53.5685 85.2812 53.9852 84.9635 54.5112 84.7344C55.0425 84.5052 55.6336 84.3906 56.2847 84.3906C57.2743 84.3906 58.0633 84.6406 58.6519 85.1406C59.2404 85.6354 59.5425 86.3333 59.5581 87.2344V91.0469C59.5581 91.8073 59.6649 92.4141 59.8784 92.8672V93H57.9409ZM55.855 91.6328C56.23 91.6328 56.5816 91.5417 56.9097 91.3594C57.243 91.1771 57.493 90.9323 57.6597 90.625V89.0312H56.6362C55.9331 89.0312 55.4045 89.1536 55.0503 89.3984C54.6961 89.6432 54.5191 89.9896 54.5191 90.4375C54.5191 90.8021 54.6389 91.0938 54.8784 91.3125C55.1232 91.526 55.4487 91.6328 55.855 91.6328ZM68.2337 86.0547H65.4916V93H63.5931V86.0547H60.8822V84.5469H68.2337V86.0547ZM74.5891 93C74.5057 92.8385 74.4328 92.5755 74.3703 92.2109C73.7661 92.8411 73.0266 93.1562 72.1516 93.1562C71.3026 93.1562 70.6099 92.9141 70.0734 92.4297C69.537 91.9453 69.2687 91.3464 69.2687 90.6328C69.2687 89.7318 69.6021 89.0417 70.2687 88.5625C70.9406 88.0781 71.899 87.8359 73.1437 87.8359H74.3078V87.2812C74.3078 86.8438 74.1854 86.4948 73.9406 86.2344C73.6958 85.9688 73.3234 85.8359 72.8234 85.8359C72.3911 85.8359 72.037 85.9453 71.7609 86.1641C71.4849 86.3776 71.3469 86.651 71.3469 86.9844H69.4484C69.4484 86.5208 69.6021 86.0885 69.9094 85.6875C70.2167 85.2812 70.6333 84.9635 71.1594 84.7344C71.6906 84.5052 72.2818 84.3906 72.9328 84.3906C73.9224 84.3906 74.7115 84.6406 75.3 85.1406C75.8885 85.6354 76.1906 86.3333 76.2062 87.2344V91.0469C76.2062 91.8073 76.313 92.4141 76.5266 92.8672V93H74.5891ZM72.5031 91.6328C72.8781 91.6328 73.2297 91.5417 73.5578 91.3594C73.8911 91.1771 74.1411 90.9323 74.3078 90.625V89.0312H73.2844C72.5812 89.0312 72.0526 89.1536 71.6984 89.3984C71.3443 89.6432 71.1672 89.9896 71.1672 90.4375C71.1672 90.8021 71.287 91.0938 71.5266 91.3125C71.7714 91.526 72.0969 91.6328 72.5031 91.6328ZM89.6591 93H87.7606V89.5859H84.4716V93H82.5731V84.5469H84.4716V88.0703H87.7606V84.5469H89.6591V93ZM96.8972 93C96.8139 92.8385 96.7409 92.5755 96.6784 92.2109C96.0743 92.8411 95.3347 93.1562 94.4597 93.1562C93.6107 93.1562 92.918 92.9141 92.3816 92.4297C91.8451 91.9453 91.5769 91.3464 91.5769 90.6328C91.5769 89.7318 91.9102 89.0417 92.5769 88.5625C93.2487 88.0781 94.2071 87.8359 95.4519 87.8359H96.6159V87.2812C96.6159 86.8438 96.4935 86.4948 96.2487 86.2344C96.004 85.9688 95.6316 85.8359 95.1316 85.8359C94.6993 85.8359 94.3451 85.9453 94.0691 86.1641C93.793 86.3776 93.655 86.651 93.655 86.9844H91.7566C91.7566 86.5208 91.9102 86.0885 92.2175 85.6875C92.5248 85.2812 92.9415 84.9635 93.4675 84.7344C93.9987 84.5052 94.5899 84.3906 95.2409 84.3906C96.2305 84.3906 97.0196 84.6406 97.6081 85.1406C98.1967 85.6354 98.4987 86.3333 98.5144 87.2344V91.0469C98.5144 91.8073 98.6211 92.4141 98.8347 92.8672V93H96.8972ZM94.8112 91.6328C95.1862 91.6328 95.5378 91.5417 95.8659 91.3594C96.1993 91.1771 96.4493 90.9323 96.6159 90.625V89.0312H95.5925C94.8894 89.0312 94.3607 89.1536 94.0066 89.3984C93.6524 89.6432 93.4753 89.9896 93.4753 90.4375C93.4753 90.8021 93.5951 91.0938 93.8347 91.3125C94.0795 91.526 94.405 91.6328 94.8112 91.6328ZM107.846 84.5469V93H105.948V86.0781H103.557L103.401 89.0234C103.302 90.4401 103.029 91.4583 102.581 92.0781C102.138 92.6927 101.458 93 100.542 93H99.9556L99.9478 91.4219L100.338 91.3828C100.755 91.3255 101.057 91.0729 101.245 90.625C101.437 90.1719 101.56 89.349 101.612 88.1562L101.768 84.5469H107.846ZM115.303 84.5469H117.194V93H115.303V87.3594L111.991 93H110.1V84.5469H111.991V90.1875L115.303 84.5469ZM126.151 93H124.252V90.1797C123.763 90.2943 123.247 90.3516 122.705 90.3516C121.549 90.3516 120.666 90.0755 120.057 89.5234C119.448 88.9661 119.143 88.1693 119.143 87.1328V84.5391H121.041V87.1328C121.041 87.7474 121.177 88.1823 121.448 88.4375C121.724 88.6927 122.143 88.8203 122.705 88.8203C123.216 88.8203 123.731 88.7604 124.252 88.6406V84.5469H126.151V93ZM135.49 93H133.592V89.5859H130.303V93H128.404V84.5469H130.303V88.0703H133.592V84.5469H135.49V93ZM139.721 87.2344H141.58C142.273 87.2344 142.877 87.3542 143.393 87.5938C143.908 87.8333 144.299 88.1693 144.564 88.6016C144.835 89.0339 144.971 89.5365 144.971 90.1094C144.971 90.9792 144.663 91.6771 144.049 92.2031C143.434 92.7292 142.616 92.9948 141.596 93H137.822V84.5469H139.721V87.2344ZM148.275 93H146.377V84.5469H148.275V93ZM139.721 88.7578V91.4844H141.572C142.036 91.4844 142.4 91.3698 142.666 91.1406C142.937 90.9062 143.072 90.5755 143.072 90.1484C143.072 89.7214 142.939 89.3854 142.674 89.1406C142.413 88.8906 142.059 88.763 141.611 88.7578H139.721ZM155.732 90.6641L158.232 84.5469H160.607V93H158.709V87.4062L156.381 93H155.092L152.756 87.375V93H150.857V84.5469H153.248L155.732 90.6641ZM168.181 84.5469H170.072V93H168.181V87.3594L164.869 93H162.978V84.5469H164.869V90.1875L168.181 84.5469Z" fill="#101014"/>
<path d="M31.2344 223.609C31.2344 224.724 31.0417 225.703 30.6562 226.547C30.2708 227.385 29.7188 228.031 29 228.484C28.2865 228.932 27.4635 229.156 26.5312 229.156C25.6094 229.156 24.7865 228.932 24.0625 228.484C23.3438 228.031 22.7865 227.388 22.3906 226.555C22 225.721 21.8021 224.76 21.7969 223.672V223.031C21.7969 221.922 21.9922 220.943 22.3828 220.094C22.7786 219.245 23.3333 218.596 24.0469 218.148C24.7656 217.695 25.5885 217.469 26.5156 217.469C27.4427 217.469 28.263 217.693 28.9766 218.141C29.6953 218.583 30.25 219.224 30.6406 220.062C31.0312 220.896 31.2292 221.867 31.2344 222.977V223.609ZM29.2578 223.016C29.2578 221.755 29.0182 220.789 28.5391 220.117C28.0651 219.445 27.3906 219.109 26.5156 219.109C25.6615 219.109 24.9922 219.445 24.5078 220.117C24.0286 220.784 23.7839 221.729 23.7734 222.953V223.609C23.7734 224.859 24.0156 225.826 24.5 226.508C24.9896 227.19 25.6667 227.531 26.5312 227.531C27.4062 227.531 28.0781 227.198 28.5469 226.531C29.0208 225.865 29.2578 224.891 29.2578 223.609V223.016ZM40.3475 229H38.4491V222.078H35.1522V229H33.2537V220.547H40.3475V229ZM49.7106 220.547V229H47.8122V222.078H45.4216L45.2653 225.023C45.1664 226.44 44.8929 227.458 44.445 228.078C44.0023 228.693 43.3226 229 42.4059 229H41.82L41.8122 227.422L42.2028 227.383C42.6195 227.326 42.9216 227.073 43.1091 226.625C43.3018 226.172 43.4242 225.349 43.4762 224.156L43.6325 220.547H49.7106ZM56.9409 229C56.8576 228.839 56.7847 228.576 56.7222 228.211C56.118 228.841 55.3784 229.156 54.5034 229.156C53.6545 229.156 52.9618 228.914 52.4253 228.43C51.8889 227.945 51.6206 227.346 51.6206 226.633C51.6206 225.732 51.954 225.042 52.6206 224.562C53.2925 224.078 54.2508 223.836 55.4956 223.836H56.6597V223.281C56.6597 222.844 56.5373 222.495 56.2925 222.234C56.0477 221.969 55.6753 221.836 55.1753 221.836C54.743 221.836 54.3889 221.945 54.1128 222.164C53.8368 222.378 53.6987 222.651 53.6987 222.984H51.8003C51.8003 222.521 51.954 222.089 52.2612 221.688C52.5685 221.281 52.9852 220.964 53.5112 220.734C54.0425 220.505 54.6336 220.391 55.2847 220.391C56.2743 220.391 57.0633 220.641 57.6519 221.141C58.2404 221.635 58.5425 222.333 58.5581 223.234V227.047C58.5581 227.807 58.6649 228.414 58.8784 228.867V229H56.9409ZM54.855 227.633C55.23 227.633 55.5816 227.542 55.9097 227.359C56.243 227.177 56.493 226.932 56.6597 226.625V225.031H55.6362C54.9331 225.031 54.4045 225.154 54.0503 225.398C53.6961 225.643 53.5191 225.99 53.5191 226.438C53.5191 226.802 53.6389 227.094 53.8784 227.312C54.1232 227.526 54.4487 227.633 54.855 227.633ZM67.2337 222.055H64.4916V229H62.5931V222.055H59.8822V220.547H67.2337V222.055ZM73.5891 229C73.5057 228.839 73.4328 228.576 73.3703 228.211C72.7661 228.841 72.0266 229.156 71.1516 229.156C70.3026 229.156 69.6099 228.914 69.0734 228.43C68.537 227.945 68.2687 227.346 68.2687 226.633C68.2687 225.732 68.6021 225.042 69.2687 224.562C69.9406 224.078 70.899 223.836 72.1437 223.836H73.3078V223.281C73.3078 222.844 73.1854 222.495 72.9406 222.234C72.6958 221.969 72.3234 221.836 71.8234 221.836C71.3911 221.836 71.037 221.945 70.7609 222.164C70.4849 222.378 70.3469 222.651 70.3469 222.984H68.4484C68.4484 222.521 68.6021 222.089 68.9094 221.688C69.2167 221.281 69.6333 220.964 70.1594 220.734C70.6906 220.505 71.2818 220.391 71.9328 220.391C72.9224 220.391 73.7115 220.641 74.3 221.141C74.8885 221.635 75.1906 222.333 75.2062 223.234V227.047C75.2062 227.807 75.313 228.414 75.5266 228.867V229H73.5891ZM71.5031 227.633C71.8781 227.633 72.2297 227.542 72.5578 227.359C72.8911 227.177 73.1411 226.932 73.3078 226.625V225.031H72.2844C71.5812 225.031 71.0526 225.154 70.6984 225.398C70.3443 225.643 70.1672 225.99 70.1672 226.438C70.1672 226.802 70.287 227.094 70.5266 227.312C70.7714 227.526 71.0969 227.633 71.5031 227.633ZM81.5341 227.484C82.0601 226.896 82.4117 226.339 82.5887 225.812C82.771 225.281 82.8804 224.604 82.9169 223.781L83.0262 220.547H88.8934V227.484H90.0653V231.516H88.1747V229H82.7528V231.516H80.8309L80.8387 227.484H81.5341ZM83.7606 227.484H87.0028V222.18H84.87L84.8153 223.797C84.7424 225.349 84.3908 226.578 83.7606 227.484ZM98.7644 220.547V229H96.8659V222.078H94.4753L94.3191 225.023C94.2201 226.44 93.9467 227.458 93.4987 228.078C93.056 228.693 92.3764 229 91.4597 229H90.8737L90.8659 227.422L91.2566 227.383C91.6732 227.326 91.9753 227.073 92.1628 226.625C92.3555 226.172 92.4779 225.349 92.53 224.156L92.6862 220.547H98.7644ZM107.713 220.547V229H105.823V225.898H104.049L102.245 229H100.276L102.268 225.586C101.747 225.367 101.346 225.055 101.065 224.648C100.789 224.242 100.651 223.776 100.651 223.25C100.651 222.464 100.953 221.82 101.557 221.32C102.167 220.815 102.987 220.557 104.018 220.547H107.713ZM102.549 223.297C102.549 223.651 102.68 223.94 102.94 224.164C103.206 224.383 103.544 224.492 103.956 224.492H105.823V222.055H104.073C103.609 222.055 103.239 222.172 102.963 222.406C102.687 222.641 102.549 222.938 102.549 223.297ZM127.205 223.609C127.205 224.724 127.013 225.703 126.627 226.547C126.242 227.385 125.69 228.031 124.971 228.484C124.257 228.932 123.434 229.156 122.502 229.156C121.632 229.156 120.854 228.958 120.166 228.562C119.479 228.167 118.929 227.599 118.518 226.859C118.106 226.12 117.864 225.258 117.791 224.273H116.369V229H114.401V217.625H116.369V222.742H117.768C117.799 221.695 118.015 220.771 118.416 219.969C118.817 219.161 119.369 218.544 120.073 218.117C120.781 217.685 121.586 217.469 122.487 217.469C123.414 217.469 124.234 217.693 124.948 218.141C125.666 218.583 126.221 219.224 126.612 220.062C127.002 220.896 127.2 221.867 127.205 222.977V223.609ZM125.229 223.016C125.229 221.755 124.989 220.789 124.51 220.117C124.036 219.445 123.362 219.109 122.487 219.109C121.632 219.109 120.963 219.445 120.479 220.117C120 220.784 119.755 221.729 119.744 222.953V223.609C119.744 224.859 119.987 225.826 120.471 226.508C120.961 227.19 121.638 227.531 122.502 227.531C123.377 227.531 124.049 227.198 124.518 226.531C124.992 225.865 125.229 224.891 125.229 223.609V223.016ZM136.342 224.859C136.342 226.167 136.045 227.211 135.451 227.992C134.857 228.768 134.061 229.156 133.061 229.156C132.134 229.156 131.391 228.852 130.834 228.242V232.25H128.936V220.547H130.686L130.764 221.406C131.321 220.729 132.079 220.391 133.037 220.391C134.068 220.391 134.876 220.776 135.459 221.547C136.048 222.312 136.342 223.378 136.342 224.742V224.859ZM134.451 224.695C134.451 223.852 134.282 223.182 133.943 222.688C133.61 222.193 133.131 221.945 132.506 221.945C131.73 221.945 131.173 222.266 130.834 222.906V226.656C131.178 227.312 131.74 227.641 132.522 227.641C133.126 227.641 133.597 227.398 133.936 226.914C134.279 226.424 134.451 225.685 134.451 224.695ZM139.299 227C139.653 227 139.926 227.102 140.119 227.305C140.312 227.503 140.408 227.753 140.408 228.055C140.408 228.352 140.312 228.599 140.119 228.797C139.926 228.99 139.653 229.086 139.299 229.086C138.96 229.086 138.692 228.99 138.494 228.797C138.296 228.604 138.197 228.357 138.197 228.055C138.197 227.753 138.294 227.503 138.486 227.305C138.679 227.102 138.95 227 139.299 227ZM149.927 220.547V229H148.029V222.078H145.638L145.482 225.023C145.383 226.44 145.11 227.458 144.662 228.078C144.219 228.693 143.539 229 142.623 229H142.037L142.029 227.422L142.42 227.383C142.836 227.326 143.138 227.073 143.326 226.625C143.519 226.172 143.641 225.349 143.693 224.156L143.849 220.547H149.927ZM157.384 220.547H159.275V229H157.384V223.359L154.072 229H152.181V220.547H154.072V226.188L157.384 220.547ZM161.529 220.547H163.427V227.484H166.724V220.547H168.622V227.484H169.771L169.615 231.508H167.888V229H161.529V220.547Z" fill="#101014"/>
<path d="M239.133 224.773V229H237.156V217.625H241.508C242.779 217.625 243.786 217.956 244.531 218.617C245.281 219.279 245.656 220.154 245.656 221.242C245.656 222.357 245.289 223.224 244.555 223.844C243.826 224.464 242.802 224.773 241.484 224.773H239.133ZM239.133 223.188H241.508C242.211 223.188 242.747 223.023 243.117 222.695C243.487 222.362 243.672 221.883 243.672 221.258C243.672 220.643 243.484 220.154 243.109 219.789C242.734 219.419 242.219 219.229 241.562 219.219H239.133V223.188ZM250.98 229.156C249.777 229.156 248.801 228.779 248.051 228.023C247.306 227.263 246.933 226.253 246.933 224.992V224.758C246.933 223.914 247.095 223.161 247.418 222.5C247.746 221.833 248.204 221.315 248.793 220.945C249.381 220.576 250.038 220.391 250.762 220.391C251.913 220.391 252.801 220.758 253.426 221.492C254.056 222.227 254.371 223.266 254.371 224.609V225.375H248.847C248.905 226.073 249.137 226.625 249.543 227.031C249.954 227.438 250.47 227.641 251.09 227.641C251.959 227.641 252.668 227.289 253.215 226.586L254.238 227.562C253.9 228.068 253.446 228.461 252.879 228.742C252.316 229.018 251.683 229.156 250.98 229.156ZM250.754 221.914C250.233 221.914 249.811 222.096 249.488 222.461C249.17 222.826 248.967 223.333 248.879 223.984H252.496V223.844C252.454 223.208 252.285 222.729 251.988 222.406C251.691 222.078 251.28 221.914 250.754 221.914ZM261.031 226.664L263.531 220.547H265.906V229H264.007V223.406L261.679 229H260.39L258.054 223.375V229H256.156V220.547H258.547L261.031 226.664ZM267.847 224.695C267.847 223.867 268.011 223.122 268.339 222.461C268.667 221.794 269.128 221.284 269.722 220.93C270.316 220.57 270.998 220.391 271.769 220.391C272.91 220.391 273.834 220.758 274.542 221.492C275.256 222.227 275.641 223.201 275.699 224.414L275.707 224.859C275.707 225.693 275.545 226.438 275.222 227.094C274.904 227.75 274.446 228.258 273.847 228.617C273.253 228.977 272.566 229.156 271.785 229.156C270.592 229.156 269.636 228.76 268.917 227.969C268.204 227.172 267.847 226.112 267.847 224.789V224.695ZM269.746 224.859C269.746 225.729 269.925 226.411 270.285 226.906C270.644 227.396 271.144 227.641 271.785 227.641C272.425 227.641 272.923 227.391 273.277 226.891C273.636 226.391 273.816 225.659 273.816 224.695C273.816 223.841 273.631 223.164 273.261 222.664C272.897 222.164 272.399 221.914 271.769 221.914C271.149 221.914 270.657 222.161 270.292 222.656C269.928 223.146 269.746 223.88 269.746 224.859ZM284.632 229H282.734V225.586H279.445V229H277.546V220.547H279.445V224.07H282.734V220.547H284.632V229ZM293.472 222.055H290.73V229H288.831V222.055H286.12V220.547H293.472V222.055ZM299.19 229V220.547H302.62C303.776 220.547 304.656 220.75 305.261 221.156C305.865 221.557 306.167 222.135 306.167 222.891C306.167 223.281 306.044 223.633 305.8 223.945C305.56 224.253 305.203 224.49 304.729 224.656C305.281 224.771 305.719 225.003 306.042 225.352C306.365 225.701 306.526 226.112 306.526 226.586C306.526 227.372 306.235 227.971 305.651 228.383C305.073 228.794 304.24 229 303.151 229H299.19ZM301.089 225.398V227.5H303.167C304.141 227.5 304.628 227.151 304.628 226.453C304.628 225.75 304.133 225.398 303.143 225.398H301.089ZM301.089 224.039H302.651C303.729 224.039 304.268 223.721 304.268 223.086C304.268 222.419 303.758 222.076 302.737 222.055H301.089V224.039ZM315.479 225.656H314.518V229H312.62V220.547H314.518V223.922H315.354L317.69 220.547H320.034L316.979 224.594L320.292 229H317.823L315.479 225.656ZM328.897 224.859C328.897 226.167 328.6 227.211 328.006 227.992C327.412 228.768 326.616 229.156 325.616 229.156C324.689 229.156 323.946 228.852 323.389 228.242V232.25H321.491V220.547H323.241L323.319 221.406C323.876 220.729 324.634 220.391 325.592 220.391C326.623 220.391 327.431 220.776 328.014 221.547C328.603 222.312 328.897 223.378 328.897 224.742V224.859ZM327.006 224.695C327.006 223.852 326.837 223.182 326.498 222.688C326.165 222.193 325.686 221.945 325.061 221.945C324.285 221.945 323.728 222.266 323.389 222.906V226.656C323.733 227.312 324.295 227.641 325.077 227.641C325.681 227.641 326.152 227.398 326.491 226.914C326.834 226.424 327.006 225.685 327.006 224.695ZM334.393 229.156C333.19 229.156 332.213 228.779 331.463 228.023C330.718 227.263 330.346 226.253 330.346 224.992V224.758C330.346 223.914 330.507 223.161 330.83 222.5C331.158 221.833 331.617 221.315 332.205 220.945C332.794 220.576 333.45 220.391 334.174 220.391C335.325 220.391 336.213 220.758 336.838 221.492C337.468 222.227 337.783 223.266 337.783 224.609V225.375H332.26C332.317 226.073 332.549 226.625 332.955 227.031C333.367 227.438 333.882 227.641 334.502 227.641C335.372 227.641 336.08 227.289 336.627 226.586L337.651 227.562C337.312 228.068 336.859 228.461 336.291 228.742C335.729 229.018 335.096 229.156 334.393 229.156ZM334.166 221.914C333.645 221.914 333.224 222.096 332.901 222.461C332.583 222.826 332.38 223.333 332.291 223.984H335.908V223.844C335.867 223.208 335.698 222.729 335.401 222.406C335.104 222.078 334.692 221.914 334.166 221.914ZM339.459 227.484C339.985 226.896 340.337 226.339 340.514 225.812C340.696 225.281 340.805 224.604 340.842 223.781L340.951 220.547H346.818V227.484H347.99V231.516H346.1V229H340.678V231.516H338.756L338.764 227.484H339.459ZM341.686 227.484H344.928V222.18H342.795L342.74 223.797C342.667 225.349 342.316 226.578 341.686 227.484ZM354.643 220.547H356.533V229H354.643V223.359L351.33 229H349.439V220.547H351.33V226.188L354.643 220.547ZM365.365 222.055H362.623V229H360.724V222.055H358.013V220.547H365.365V222.055Z" fill="#101014"/>
<path d="M222.344 83.2188H217.102V85.9766H219.43C220.263 85.9766 220.99 86.1198 221.609 86.4062C222.229 86.6927 222.701 87.099 223.023 87.625C223.346 88.151 223.508 88.7604 223.508 89.4531C223.508 90.5156 223.146 91.3698 222.422 92.0156C221.703 92.6615 220.721 92.9896 219.477 93H215.125V81.625H222.344V83.2188ZM217.102 87.5625V91.4219H219.422C220.089 91.4219 220.607 91.2422 220.977 90.8828C221.352 90.5182 221.539 90.0365 221.539 89.4375C221.539 88.8646 221.357 88.4115 220.992 88.0781C220.628 87.7448 220.122 87.5729 219.477 87.5625H217.102ZM228.918 93.1562C227.715 93.1562 226.738 92.7786 225.988 92.0234C225.243 91.263 224.871 90.2526 224.871 88.9922V88.7578C224.871 87.9141 225.032 87.1615 225.355 86.5C225.683 85.8333 226.142 85.3151 226.73 84.9453C227.319 84.5755 227.975 84.3906 228.699 84.3906C229.85 84.3906 230.738 84.7578 231.363 85.4922C231.993 86.2266 232.308 87.2656 232.308 88.6094V89.375H226.785C226.842 90.0729 227.074 90.625 227.48 91.0312C227.892 91.4375 228.407 91.6406 229.027 91.6406C229.897 91.6406 230.605 91.2891 231.152 90.5859L232.176 91.5625C231.837 92.0677 231.384 92.4609 230.816 92.7422C230.254 93.0182 229.621 93.1562 228.918 93.1562ZM228.691 85.9141C228.17 85.9141 227.749 86.0964 227.426 86.4609C227.108 86.8255 226.905 87.3333 226.816 87.9844H230.433V87.8438C230.392 87.2083 230.222 86.7292 229.926 86.4062C229.629 86.0781 229.217 85.9141 228.691 85.9141ZM240.351 86.8594C240.351 87.2344 240.237 87.5807 240.007 87.8984C239.784 88.2109 239.466 88.4609 239.054 88.6484C240.023 88.987 240.507 89.6406 240.507 90.6094C240.507 91.3854 240.192 92.0052 239.562 92.4688C238.932 92.9271 238.088 93.1562 237.031 93.1562C236.385 93.1562 235.797 93.0495 235.265 92.8359C234.734 92.6172 234.32 92.3099 234.023 91.9141C233.726 91.513 233.578 91.0391 233.578 90.4922H235.468C235.468 90.8359 235.622 91.125 235.929 91.3594C236.237 91.5885 236.625 91.7031 237.093 91.7031C237.557 91.7031 237.924 91.5964 238.195 91.3828C238.471 91.1641 238.609 90.8802 238.609 90.5312C238.609 90.1198 238.489 89.8229 238.25 89.6406C238.01 89.4583 237.64 89.3672 237.14 89.3672H235.781V88H237.187C238.036 87.9896 238.461 87.6406 238.461 86.9531C238.461 86.6094 238.338 86.3411 238.093 86.1484C237.849 85.9557 237.513 85.8594 237.086 85.8594C236.669 85.8594 236.317 85.9635 236.031 86.1719C235.744 86.375 235.601 86.6328 235.601 86.9453H233.711C233.711 86.2005 234.023 85.5911 234.648 85.1172C235.273 84.638 236.067 84.3984 237.031 84.3984C238.078 84.3984 238.893 84.612 239.476 85.0391C240.06 85.4661 240.351 86.0729 240.351 86.8594ZM249.441 93H247.542V89.5859H244.253V93H242.355V84.5469H244.253V88.0703H247.542V84.5469H249.441V93ZM256.679 93C256.596 92.8385 256.523 92.5755 256.46 92.2109C255.856 92.8411 255.117 93.1562 254.242 93.1562C253.393 93.1562 252.7 92.9141 252.163 92.4297C251.627 91.9453 251.359 91.3464 251.359 90.6328C251.359 89.7318 251.692 89.0417 252.359 88.5625C253.031 88.0781 253.989 87.8359 255.234 87.8359H256.398V87.2812C256.398 86.8438 256.275 86.4948 256.031 86.2344C255.786 85.9688 255.413 85.8359 254.913 85.8359C254.481 85.8359 254.127 85.9453 253.851 86.1641C253.575 86.3776 253.437 86.651 253.437 86.9844H251.538C251.538 86.5208 251.692 86.0885 251.999 85.6875C252.307 85.2812 252.723 84.9635 253.249 84.7344C253.781 84.5052 254.372 84.3906 255.023 84.3906C256.012 84.3906 256.801 84.6406 257.39 85.1406C257.979 85.6354 258.281 86.3333 258.296 87.2344V91.0469C258.296 91.8073 258.403 92.4141 258.617 92.8672V93H256.679ZM254.593 91.6328C254.968 91.6328 255.32 91.5417 255.648 91.3594C255.981 91.1771 256.231 90.9323 256.398 90.625V89.0312H255.374C254.671 89.0312 254.143 89.1536 253.788 89.3984C253.434 89.6432 253.257 89.9896 253.257 90.4375C253.257 90.8021 253.377 91.0938 253.617 91.3125C253.861 91.526 254.187 91.6328 254.593 91.6328ZM267.628 84.5469V93H265.73V86.0781H263.339L263.183 89.0234C263.084 90.4401 262.81 91.4583 262.362 92.0781C261.92 92.6927 261.24 93 260.323 93H259.737L259.73 91.4219L260.12 91.3828C260.537 91.3255 260.839 91.0729 261.027 90.625C261.219 90.1719 261.342 89.349 261.394 88.1562L261.55 84.5469H267.628ZM275.085 84.5469H276.976V93H275.085V87.3594L271.772 93H269.882V84.5469H271.772V90.1875L275.085 84.5469ZM285.933 93H284.034V90.1797C283.544 90.2943 283.029 90.3516 282.487 90.3516C281.331 90.3516 280.448 90.0755 279.839 89.5234C279.229 88.9661 278.925 88.1693 278.925 87.1328V84.5391H280.823V87.1328C280.823 87.7474 280.959 88.1823 281.229 88.4375C281.505 88.6927 281.925 88.8203 282.487 88.8203C282.998 88.8203 283.513 88.7604 284.034 88.6406V84.5469H285.933V93ZM295.272 93H293.374V89.5859H290.085V93H288.186V84.5469H290.085V88.0703H293.374V84.5469H295.272V93ZM299.503 87.2344H301.362C302.055 87.2344 302.659 87.3542 303.174 87.5938C303.69 87.8333 304.081 88.1693 304.346 88.6016C304.617 89.0339 304.753 89.5365 304.753 90.1094C304.753 90.9792 304.445 91.6771 303.831 92.2031C303.216 92.7292 302.398 92.9948 301.378 93H297.604V84.5469H299.503V87.2344ZM308.057 93H306.159V84.5469H308.057V93ZM299.503 88.7578V91.4844H301.354C301.818 91.4844 302.182 91.3698 302.448 91.1406C302.719 90.9062 302.854 90.5755 302.854 90.1484C302.854 89.7214 302.721 89.3854 302.456 89.1406C302.195 88.8906 301.841 88.763 301.393 88.7578H299.503ZM315.772 84.5469H317.662V93H315.772V87.3594L312.459 93H310.569V84.5469H312.459V90.1875L315.772 84.5469ZM316.662 81.3047C316.662 81.9609 316.433 82.4922 315.975 82.8984C315.517 83.3047 314.905 83.5078 314.139 83.5078C313.373 83.5078 312.761 83.3047 312.303 82.8984C311.845 82.4922 311.616 81.9609 311.616 81.3047H313.037C313.037 81.6484 313.134 81.9167 313.327 82.1094C313.524 82.2969 313.795 82.3906 314.139 82.3906C314.483 82.3906 314.751 82.2969 314.944 82.1094C315.136 81.9167 315.233 81.6484 315.233 81.3047H316.662ZM331.389 88.8594C331.389 90.1667 331.092 91.2109 330.498 91.9922C329.904 92.7682 329.107 93.1562 328.107 93.1562C327.18 93.1562 326.438 92.8516 325.881 92.2422V96.25H323.982V84.5469H325.732L325.811 85.4062C326.368 84.7292 327.126 84.3906 328.084 84.3906C329.115 84.3906 329.923 84.776 330.506 85.5469C331.094 86.3125 331.389 87.3776 331.389 88.7422V88.8594ZM329.498 88.6953C329.498 87.8516 329.329 87.1823 328.99 86.6875C328.657 86.1927 328.178 85.9453 327.553 85.9453C326.777 85.9453 326.219 86.2656 325.881 86.9062V90.6562C326.225 91.3125 326.787 91.6406 327.568 91.6406C328.173 91.6406 328.644 91.3984 328.982 90.9141C329.326 90.4245 329.498 89.6849 329.498 88.6953ZM338.213 93C338.129 92.8385 338.057 92.5755 337.994 92.2109C337.39 92.8411 336.65 93.1562 335.775 93.1562C334.926 93.1562 334.234 92.9141 333.697 92.4297C333.161 91.9453 332.893 91.3464 332.893 90.6328C332.893 89.7318 333.226 89.0417 333.893 88.5625C334.564 88.0781 335.523 87.8359 336.768 87.8359H337.932V87.2812C337.932 86.8438 337.809 86.4948 337.564 86.2344C337.32 85.9688 336.947 85.8359 336.447 85.8359C336.015 85.8359 335.661 85.9453 335.385 86.1641C335.109 86.3776 334.971 86.651 334.971 86.9844H333.072C333.072 86.5208 333.226 86.0885 333.533 85.6875C333.84 85.2812 334.257 84.9635 334.783 84.7344C335.314 84.5052 335.906 84.3906 336.557 84.3906C337.546 84.3906 338.335 84.6406 338.924 85.1406C339.512 85.6354 339.814 86.3333 339.83 87.2344V91.0469C339.83 91.8073 339.937 92.4141 340.15 92.8672V93H338.213ZM336.127 91.6328C336.502 91.6328 336.853 91.5417 337.182 91.3594C337.515 91.1771 337.765 90.9323 337.932 90.625V89.0312H336.908C336.205 89.0312 335.676 89.1536 335.322 89.3984C334.968 89.6432 334.791 89.9896 334.791 90.4375C334.791 90.8021 334.911 91.0938 335.15 91.3125C335.395 91.526 335.721 91.6328 336.127 91.6328ZM345.451 91.6406C345.925 91.6406 346.318 91.5026 346.631 91.2266C346.943 90.9505 347.11 90.6094 347.131 90.2031H348.92C348.899 90.7292 348.735 91.2214 348.427 91.6797C348.12 92.1328 347.704 92.4922 347.177 92.7578C346.651 93.0234 346.084 93.1562 345.474 93.1562C344.292 93.1562 343.355 92.7734 342.662 92.0078C341.969 91.2422 341.623 90.1849 341.623 88.8359V88.6406C341.623 87.3542 341.967 86.3255 342.654 85.5547C343.342 84.7786 344.279 84.3906 345.467 84.3906C346.472 84.3906 347.289 84.6849 347.92 85.2734C348.555 85.8568 348.888 86.625 348.92 87.5781H347.131C347.11 87.0938 346.943 86.6953 346.631 86.3828C346.323 86.0703 345.93 85.9141 345.451 85.9141C344.836 85.9141 344.362 86.138 344.029 86.5859C343.696 87.0286 343.526 87.7031 343.521 88.6094V88.9141C343.521 89.8307 343.685 90.5156 344.013 90.9688C344.347 91.4167 344.826 91.6406 345.451 91.6406ZM353.986 91.6406C354.46 91.6406 354.853 91.5026 355.166 91.2266C355.478 90.9505 355.645 90.6094 355.666 90.2031H357.455C357.434 90.7292 357.27 91.2214 356.962 91.6797C356.655 92.1328 356.239 92.4922 355.712 92.7578C355.186 93.0234 354.619 93.1562 354.009 93.1562C352.827 93.1562 351.89 92.7734 351.197 92.0078C350.504 91.2422 350.158 90.1849 350.158 88.8359V88.6406C350.158 87.3542 350.502 86.3255 351.189 85.5547C351.877 84.7786 352.814 84.3906 354.002 84.3906C355.007 84.3906 355.824 84.6849 356.455 85.2734C357.09 85.8568 357.423 86.625 357.455 87.5781H355.666C355.645 87.0938 355.478 86.6953 355.166 86.3828C354.858 86.0703 354.465 85.9141 353.986 85.9141C353.371 85.9141 352.897 86.138 352.564 86.5859C352.231 87.0286 352.061 87.7031 352.056 88.6094V88.9141C352.056 89.8307 352.22 90.5156 352.548 90.9688C352.882 91.4167 353.361 91.6406 353.986 91.6406ZM365.826 93H363.927V90.1797C363.438 90.2943 362.922 90.3516 362.38 90.3516C361.224 90.3516 360.341 90.0755 359.732 89.5234C359.122 88.9661 358.818 88.1693 358.818 87.1328V84.5391H360.716V87.1328C360.716 87.7474 360.852 88.1823 361.122 88.4375C361.399 88.6927 361.818 88.8203 362.38 88.8203C362.891 88.8203 363.406 88.7604 363.927 88.6406V84.5469H365.826V93ZM371.728 93.1562C370.525 93.1562 369.548 92.7786 368.798 92.0234C368.053 91.263 367.681 90.2526 367.681 88.9922V88.7578C367.681 87.9141 367.842 87.1615 368.165 86.5C368.493 85.8333 368.952 85.3151 369.54 84.9453C370.129 84.5755 370.785 84.3906 371.509 84.3906C372.66 84.3906 373.548 84.7578 374.173 85.4922C374.803 86.2266 375.118 87.2656 375.118 88.6094V89.375H369.595C369.652 90.0729 369.884 90.625 370.29 91.0312C370.702 91.4375 371.217 91.6406 371.837 91.6406C372.707 91.6406 373.415 91.2891 373.962 90.5859L374.986 91.5625C374.647 92.0677 374.194 92.4609 373.626 92.7422C373.064 93.0182 372.431 93.1562 371.728 93.1562ZM371.501 85.9141C370.98 85.9141 370.559 86.0964 370.236 86.4609C369.918 86.8255 369.715 87.3333 369.626 87.9844H373.243V87.8438C373.202 87.2083 373.033 86.7292 372.736 86.4062C372.439 86.0781 372.027 85.9141 371.501 85.9141ZM383.318 86.0547H380.575V93H378.677V86.0547H375.966V84.5469H383.318V86.0547Z" fill="#101014"/>
<g clip-path="url(#clip0)">
<path d="M79.4375 36.2446H113.813C115.703 36.2446 117.25 37.7915 117.25 39.6822V43.8072C117.25 45.6979 115.703 47.2447 113.813 47.2447H79.4375C77.5469 47.2446 76 45.6977 76 43.8071V39.6821C76 37.7915 77.5469 36.2446 79.4375 36.2446Z" fill="#A86A3F"/>
<path d="M86.9656 39.9222L108.484 34.216C109.206 34.0097 109.963 34.4566 110.169 35.1785L113.744 48.3785C113.95 49.1004 113.503 49.8566 112.781 50.0628L84.7656 57.5222C84.0438 57.7284 83.2876 57.2815 83.0813 56.5596L80.4688 46.8659L86.9656 39.9222Z" fill="#3DB39E"/>
<path d="M109.997 47.966L105.356 49.2034C104.978 49.3066 104.6 49.1003 104.531 48.7222C104.428 48.3441 104.635 47.9659 105.013 47.8972L109 46.8316L106.869 38.8566L102.881 39.9222C102.503 40.0254 102.125 39.819 102.056 39.441C101.953 39.0629 102.16 38.6847 102.538 38.616L107.178 37.3785C107.556 37.2754 107.935 37.4817 108.003 37.8598L110.478 47.141C110.581 47.5191 110.375 47.8972 109.997 47.966ZM90.747 53.1566L86.1064 54.3941C85.7283 54.4972 85.3501 54.2909 85.2814 53.9128L82.8064 44.6316C82.7032 44.2535 82.9095 43.8753 83.2876 43.8066L87.9282 42.5692C88.3063 42.466 88.6845 42.6723 88.7532 43.0504C88.8564 43.4285 88.6501 43.8067 88.272 43.8754L84.2845 44.941L86.4157 52.916L90.4032 51.8504C90.7813 51.7472 91.1594 51.9535 91.2281 52.3316C91.3313 52.6753 91.1251 53.0534 90.747 53.1566Z" fill="#78CABB"/>
<path d="M76.275 44.735C82.3937 41.2287 98.8937 31.5693 98.8937 31.5693C99.5469 31.1912 100.406 31.3974 100.784 32.0506L107.659 43.8755C108.037 44.5287 107.797 45.3536 107.144 45.7318L81.9812 60.1693C81.328 60.5474 80.4687 60.3412 80.0905 59.688C80.0905 59.688 78.1655 55.7693 76.2405 52.4693C76.2406 44.735 76.275 47.2787 76.275 44.735Z" fill="#5ABEAC"/>
<path d="M104.153 43.4972L99.3407 35.1785C99.1344 34.8348 98.7219 34.7316 98.4125 34.9378L94.2532 37.3441C93.9095 37.5503 93.8063 37.9628 94.0126 38.2722C94.2188 38.6159 94.6313 38.7191 94.9407 38.5128L98.5157 36.4503L102.641 43.6003L99.0657 45.6628C98.722 45.8691 98.6189 46.2816 98.8251 46.591C99.0314 46.9347 99.4438 47.0379 99.7532 46.8316L103.913 44.4254C104.222 44.2535 104.359 43.841 104.153 43.4972ZM85.9344 53.2254L82.3594 55.2879L78.2344 48.1378L81.8094 46.0753C82.1531 45.8691 82.2563 45.4566 82.05 45.1472C81.8438 44.8035 81.4313 44.7003 81.1219 44.9066L76.9625 47.3128C76.6188 47.519 76.5157 47.9315 76.7219 48.2409L81.5344 56.5597C81.7406 56.9034 82.1531 57.0066 82.4625 56.8003L86.6218 54.3941C86.9655 54.1878 87.0687 53.7754 86.8625 53.466C86.6906 53.1566 86.2781 53.0191 85.9344 53.2254ZM87.6875 41.091C85.0407 42.6035 84.1469 45.9722 85.6594 48.6191C87.2063 51.266 90.5406 52.1597 93.1875 50.6472C95.8344 49.1348 96.7281 45.766 95.2156 43.1191C93.6688 40.5066 90.3344 39.5785 87.6875 41.091ZM104.153 43.4972L99.3407 35.1785C99.1344 34.8348 98.7219 34.7316 98.4125 34.9378L94.2532 37.3441C93.9095 37.5503 93.8063 37.9628 94.0126 38.2722C94.2188 38.6159 94.6313 38.7191 94.9407 38.5128L98.5157 36.4503L102.641 43.6003L99.0657 45.6628C98.722 45.8691 98.6189 46.2816 98.8251 46.591C99.0314 46.9347 99.4438 47.0379 99.7532 46.8316L103.913 44.4254C104.222 44.2535 104.359 43.841 104.153 43.4972ZM85.9344 53.2254L82.3594 55.2879L78.2344 48.1378L81.8094 46.0753C82.1531 45.8691 82.2563 45.4566 82.05 45.1472C81.8438 44.8035 81.4313 44.7003 81.1219 44.9066L76.9625 47.3128C76.6188 47.519 76.5157 47.9315 76.7219 48.2409L81.5344 56.5597C81.7406 56.9034 82.1531 57.0066 82.4625 56.8003L86.6218 54.3941C86.9655 54.1878 87.0687 53.7754 86.8625 53.466C86.6906 53.1566 86.2781 53.0191 85.9344 53.2254ZM87.6875 41.091C85.0407 42.6035 84.1469 45.9722 85.6594 48.6191C87.2063 51.266 90.5406 52.1597 93.1875 50.6472C95.8344 49.1348 96.7281 45.766 95.2156 43.1191C93.6688 40.5066 90.3344 39.5785 87.6875 41.091Z" fill="#8CD2C5"/>
<path d="M115.188 70.6197H79.4375C77.5469 70.6197 76 69.0728 76 67.1821V42.4322H115.188C117.078 42.4322 118.625 43.979 118.625 45.8697V67.1822C118.625 69.0728 117.078 70.6197 115.188 70.6197ZM78.75 42.4322H76V39.6821C76 41.1946 77.2375 42.4322 78.75 42.4322Z" fill="#C47E4D"/>
<path d="M118.625 62.0253H113.125C110.478 62.0253 108.313 59.8597 108.313 57.2129C108.313 54.566 110.478 52.4004 113.125 52.4004H118.625C119.381 52.4004 120 53.0191 120 53.7754V60.6504C120 61.4066 119.381 62.0253 118.625 62.0253Z" fill="#A86A3F"/>
<path d="M113.125 54.4634C114.638 54.4634 115.875 55.7008 115.875 57.2134C115.875 58.726 114.638 59.9634 113.125 59.9634C111.613 59.9634 110.375 58.726 110.375 57.2134C110.375 55.7008 111.613 54.4634 113.125 54.4634Z" fill="#EFC75E"/>
<path d="M113.813 59.2756C112.3 59.2756 111.063 58.0382 111.063 56.5256C111.063 55.9413 111.234 55.3912 111.544 54.9443C110.822 55.4256 110.375 56.2506 110.375 57.2131C110.375 58.7256 111.612 59.9631 113.125 59.9631C114.053 59.9631 114.878 59.4819 115.394 58.7944C114.947 59.1038 114.397 59.2756 113.813 59.2756Z" fill="#D7B354"/>
<path d="M115.188 69.2442H79.4375C77.5469 69.2442 76 67.6973 76 65.8066V67.1817C76 69.0723 77.5469 70.6192 79.4375 70.6192H115.188C117.078 70.6192 118.625 69.0723 118.625 67.1817V65.8066C118.625 67.6973 117.078 69.2442 115.188 69.2442Z" fill="#B27245"/>
<path d="M115.188 42.4322H78.75C77.2375 42.4322 76 41.1946 76 39.6821V41.0571C76 42.5696 77.2375 43.8072 78.75 43.8072H115.188C117.078 43.8072 118.625 45.354 118.625 47.2447V45.8697C118.625 43.979 117.078 42.4322 115.188 42.4322Z" fill="#CA8B5F"/>
</g>
<g clip-path="url(#clip1)">
<path d="M320.343 41.5559L312.402 33.5996V65.4828H323.029V48.016C323.029 45.5907 322.062 43.2656 320.343 41.5559Z" fill="#FFB782"/>
<path d="M285.207 59.6738L279.204 44.089C278.601 42.5245 279.381 40.7671 280.946 40.1643L309.282 29.2496C310.846 28.647 312.604 29.4265 313.206 30.9919L319.21 46.5767C319.812 48.1412 319.033 49.8986 317.467 50.5014L289.132 61.4161C287.567 62.0186 285.81 61.2383 285.207 59.6738Z" fill="#DE4C3C"/>
<path d="M315.37 36.606L281.395 49.7754L283.657 55.648L317.634 42.4847L315.37 36.606Z" fill="#7A4930"/>
<path d="M279.001 48.7822V32.0815C279.001 30.4046 280.361 29.0449 282.038 29.0449H312.403C314.08 29.0449 315.439 30.4046 315.439 32.0815V48.7822C315.439 50.4591 314.08 51.8188 312.403 51.8188H282.038C280.361 51.8188 279.001 50.4591 279.001 48.7822Z" fill="#4398D1"/>
<path d="M312.402 29.0449H309.176L286.402 51.8188H312.402C314.079 51.8188 315.438 50.4591 315.438 48.7822V32.0815C315.438 30.4046 314.079 29.0449 312.402 29.0449Z" fill="#3E8CC7"/>
<path d="M282.037 41.1909H285.073V42.7092H282.037V41.1909Z" fill="#5EB3D1"/>
<path d="M282.037 45.7456H285.073V47.2639H282.037V45.7456Z" fill="#5EB3D1"/>
<path d="M295.701 45.7456H298.738V47.2639H295.701V45.7456Z" fill="#5EB3D1"/>
<path d="M286.592 41.1909H289.628V42.7092H286.592V41.1909Z" fill="#5EB3D1"/>
<path d="M291.146 41.1909H294.183V42.7092H291.146V41.1909Z" fill="#5EB3D1"/>
<path d="M295.701 41.1909H298.738V42.7092H295.701V41.1909Z" fill="#5EB3D1"/>
<path d="M310.124 32.0815H311.643V34.359H310.124V32.0815Z" fill="#5EB3D1"/>
<path d="M307.088 32.0815H308.606V34.359H307.088V32.0815Z" fill="#5EB3D1"/>
<path d="M304.051 32.0815H305.57V34.359H304.051V32.0815Z" fill="#5EB3D1"/>
<path d="M301.015 32.0815H302.533V34.359H301.015V32.0815Z" fill="#5EB3D1"/>
<path d="M309.365 65.4829H323.029V73.074H309.365V65.4829Z" fill="#88B337"/>
<path d="M307.137 42.7586C305.85 41.4756 303.766 41.4794 302.483 42.767C301.243 44.0119 301.2 46.0122 302.385 47.3096L308.606 54.0963C306.736 57.3687 306.816 61.4041 308.813 64.6002L309.365 65.4831H319.234V54.8554L307.137 42.7586Z" fill="#FFB782"/>
<path d="M311.643 67.7607H313.161V69.279H311.643V67.7607Z" fill="#6B962A"/>
<path d="M282.037 36.94V33.2962C282.037 32.6251 282.58 32.0815 283.252 32.0815H286.895C287.566 32.0815 288.11 32.6251 288.11 33.2962V36.94C288.11 37.6111 287.566 38.1547 286.895 38.1547H283.252C282.58 38.1547 282.037 37.6111 282.037 36.94Z" fill="#FDB62F"/>
<path d="M282.037 34.3589H284.314V35.8772H282.037V34.3589Z" fill="#FD7B2F"/>
<path d="M285.833 34.3589H288.11V35.8772H285.833V34.3589Z" fill="#FD7B2F"/>
<path d="M318.475 54.855C318.274 54.855 318.08 54.7751 317.938 54.6325L314.902 51.5959C314.61 51.2947 314.619 50.8141 314.921 50.5225C315.215 50.2386 315.681 50.2386 315.975 50.5225L319.012 53.559C319.308 53.8559 319.308 54.3364 319.012 54.6325C318.869 54.7751 318.676 54.855 318.475 54.855Z" fill="#F2A46F"/>
</g>
<g clip-path="url(#clip2)">
<path d="M78.1996 165.741H107.528C108.338 165.741 108.994 166.397 108.994 167.207V206.8C108.994 207.611 108.338 208.267 107.528 208.267H78.1996C77.3897 208.267 76.7332 207.611 76.7332 206.8V167.207C76.7332 166.397 77.3897 165.741 78.1996 165.741Z" fill="#57B7EB"/>
<path d="M95.0634 202.401C87.7746 202.401 81.8656 196.493 81.8656 189.203V165.741H78.1996C77.3897 165.741 76.7332 166.397 76.7332 167.207V206.8C76.7332 207.611 77.3897 208.267 78.1996 208.267H107.528C108.338 208.267 108.994 207.611 108.994 206.8V202.401H95.0634Z" fill="#4891D3"/>
<path d="M83.3322 170.14H102.396V173.072H83.3322V170.14Z" fill="#F9E109"/>
<path d="M100.196 176.738H85.5317C85.1268 176.738 84.7985 176.41 84.7985 176.005C84.7985 175.6 85.1268 175.272 85.5317 175.272H100.196C100.601 175.272 100.929 175.6 100.929 176.005C100.929 176.41 100.601 176.738 100.196 176.738Z" fill="#39519D"/>
<path d="M104.595 181.871H88.4645C88.0596 181.871 87.7313 181.543 87.7313 181.138C87.7313 180.733 88.0596 180.405 88.4645 180.405H104.595C105 180.405 105.328 180.733 105.328 181.138C105.328 181.543 105 181.871 104.595 181.871Z" fill="#39519D"/>
<path d="M96.5298 186.271H81.8657C81.4607 186.271 81.1324 185.943 81.1324 185.537C81.1324 185.132 81.4607 184.804 81.8657 184.804H96.5298C96.9347 184.804 97.263 185.132 97.263 185.537C97.263 185.943 96.9347 186.271 96.5298 186.271Z" fill="#39519D"/>
<path d="M104.595 186.271H99.4627C99.0578 186.271 98.7295 185.943 98.7295 185.537C98.7295 185.132 99.0578 184.804 99.4627 184.804H104.595C105 184.804 105.328 185.132 105.328 185.537C105.328 185.943 105 186.271 104.595 186.271Z" fill="#39519D"/>
<path d="M89.1977 189.937H81.8657C81.4607 189.937 81.1324 189.609 81.1324 189.203C81.1324 188.799 81.4607 188.47 81.8657 188.47H89.1977C89.6026 188.47 89.9309 188.799 89.9309 189.203C89.9309 189.609 89.6026 189.937 89.1977 189.937Z" fill="#39519D"/>
<path d="M97.263 189.937H92.1305C91.7256 189.937 91.3973 189.609 91.3973 189.203C91.3973 188.799 91.7256 188.47 92.1305 188.47H97.263C97.6679 188.47 97.9962 188.799 97.9962 189.203C97.9962 189.609 97.6679 189.937 97.263 189.937Z" fill="#39519D"/>
<path d="M102.396 173.072H83.3322V170.14L102.396 173.072Z" fill="#FCBC04"/>
<path d="M90.6642 199.835C90.6642 202.872 88.2021 205.334 85.1651 205.334C82.1281 205.334 79.666 202.872 79.666 199.835C79.666 196.797 82.1281 194.335 85.1651 194.335C88.2021 194.335 90.6642 196.797 90.6642 199.835Z" fill="#F9E109"/>
<path d="M85.1652 205.333C87.5463 205.333 89.6564 203.8 90.3929 201.536C87.1661 200.311 84.5469 197.871 83.0977 194.739C80.6592 195.728 79.2634 198.305 79.7674 200.888C80.2712 203.47 82.5342 205.334 85.1652 205.333Z" fill="#FCBC04"/>
<path d="M94.3302 203.134C94.2504 203.137 94.1709 203.124 94.0957 203.098C93.7141 202.969 93.5078 202.556 93.6335 202.174L95.4372 196.762C95.6581 196.102 96.3129 195.688 97.0038 195.772C97.6952 195.855 98.2322 196.413 98.2895 197.107L98.539 200.04L98.8028 199.593C99.0832 199.104 99.6191 198.819 100.181 198.86C100.734 198.906 101.214 199.261 101.42 199.776L101.89 200.934L104.023 198.222C104.144 198.069 104.322 197.97 104.516 197.948C104.71 197.926 104.905 197.982 105.057 198.104C105.372 198.356 105.424 198.815 105.174 199.131L103.033 201.851C102.707 202.259 102.189 202.462 101.672 202.385C101.155 202.308 100.719 201.962 100.526 201.477L100.071 200.326L99.7999 200.773C99.4806 201.316 98.8505 201.594 98.2343 201.465C97.6182 201.335 97.1535 200.827 97.0797 200.201L96.8306 197.225L95.0634 202.606C94.9692 202.93 94.6667 203.148 94.3302 203.134Z" fill="#39519D"/>
<path d="M84.9747 201.917C84.5873 201.918 84.2157 201.765 83.9408 201.492L82.3863 199.937C82.2474 199.8 82.1693 199.612 82.1693 199.417C82.1693 199.221 82.2474 199.034 82.3863 198.896C82.6723 198.612 83.1342 198.612 83.4202 198.896L84.9747 200.451L87.5699 197.862C87.861 197.613 88.2945 197.63 88.5655 197.901C88.8362 198.172 88.853 198.605 88.6039 198.896L86.0158 201.492C85.739 201.766 85.3642 201.919 84.9747 201.917Z" fill="#39519D"/>
<path d="M112.958 179.984L116.768 182.184L110.169 193.613L106.359 191.413L112.958 179.984Z" fill="#FCBC04"/>
<path d="M109.801 185.449L106.355 191.403L110.168 193.602L111.282 191.659C110.455 189.683 109.955 187.586 109.801 185.449Z" fill="#E59730"/>
<path d="M110.168 193.617L106.355 191.417L104.793 195.59L107.33 197.056L110.168 193.617Z" fill="#A1D51C"/>
<path d="M104.79 195.593L107.33 197.06L106.597 198.33C106.192 199.031 105.295 199.271 104.594 198.867C103.892 198.462 103.652 197.565 104.057 196.863L104.79 195.593Z" fill="#E59730"/>
<path d="M115.151 176.177L118.961 178.377L116.762 182.187L112.952 179.987L115.151 176.177Z" fill="#FCBC04"/>
<path d="M118.523 174.737C119.224 175.142 119.464 176.039 119.06 176.74L118.326 178.011L115.787 176.544L116.52 175.274C116.925 174.573 117.822 174.332 118.523 174.737Z" fill="#C4F236"/>
<path d="M111.957 181.727L112.69 180.457L116.5 182.657L115.767 183.927L111.957 181.727Z" fill="#E59730"/>
<path d="M115.637 190.736C115.509 190.737 115.382 190.704 115.271 190.641C115.102 190.543 114.98 190.381 114.93 190.193C114.88 190.004 114.908 189.804 115.007 189.636L117.94 184.555C118.037 184.386 118.063 184.186 118.013 183.998C117.962 183.808 117.838 183.648 117.668 183.55L111.318 179.884C110.969 179.683 110.848 179.238 111.047 178.887C111.144 178.717 111.305 178.594 111.493 178.542C111.682 178.492 111.883 178.518 112.052 178.616L118.401 182.282C118.907 182.573 119.276 183.053 119.428 183.616C119.58 184.181 119.5 184.782 119.208 185.288L116.275 190.369C116.143 190.597 115.9 190.737 115.637 190.736Z" fill="#39519D"/>
<path d="M117.793 175.272C117.796 175.025 117.831 174.779 117.896 174.539C117.336 174.501 116.804 174.786 116.524 175.272L115.791 176.541L118.328 178.007L118.695 177.377C118.117 176.83 117.791 176.068 117.793 175.272Z" fill="#A1D51C"/>
<path d="M119.919 175.433C119.768 174.87 119.398 174.39 118.893 174.099C118.387 173.807 117.785 173.727 117.221 173.879C116.658 174.031 116.177 174.4 115.886 174.905L115.52 175.543C115.171 175.343 114.726 175.461 114.523 175.808L112.66 178.982L112.022 178.615C111.853 178.518 111.652 178.491 111.464 178.542C111.275 178.593 111.115 178.717 111.018 178.887C110.819 179.237 110.94 179.683 111.289 179.884L111.927 180.25L105.695 191.051L104.155 195.164L103.422 196.535C102.993 197.282 103.038 198.21 103.539 198.911L101.89 200.934L101.428 199.776C101.219 199.26 100.737 198.906 100.183 198.863C99.6277 198.819 99.096 199.093 98.81 199.571L98.5461 200.018L98.2969 197.085C98.2397 196.391 97.7023 195.833 97.0113 195.75C96.32 195.666 95.6656 196.08 95.4447 196.741L93.641 202.151C93.515 202.534 93.7212 202.947 94.1028 203.076C94.1744 203.109 94.2514 203.129 94.3302 203.134C94.6452 203.135 94.9259 202.934 95.0269 202.636L96.823 197.225L97.0797 200.201C97.1327 200.836 97.5892 201.364 98.21 201.508C98.8307 201.652 99.473 201.379 99.7999 200.832L100.071 200.384L100.526 201.536C100.719 202.021 101.155 202.367 101.672 202.444C102.189 202.521 102.707 202.317 103.033 201.909L104.742 199.747C104.931 199.796 105.126 199.821 105.321 199.82C106.107 199.826 106.837 199.412 107.235 198.735L107.968 197.51L110.761 194.116L117.06 183.183L117.698 183.55C117.868 183.647 117.992 183.808 118.042 183.997C118.093 184.185 118.066 184.386 117.969 184.554L115.036 189.636C114.926 189.803 114.888 190.007 114.932 190.203C114.977 190.398 115.099 190.567 115.271 190.669C115.44 190.767 115.641 190.794 115.829 190.743C116.018 190.692 116.178 190.568 116.275 190.398L119.208 185.317C119.501 184.811 119.58 184.21 119.428 183.646C119.276 183.082 118.907 182.602 118.401 182.311L117.763 181.944L119.597 178.769C119.797 178.421 119.679 177.976 119.333 177.772L119.699 177.134C120 176.621 120.079 176.007 119.919 175.433ZM117.155 175.639C117.252 175.469 117.413 175.345 117.602 175.294C117.791 175.248 117.99 175.274 118.159 175.368C118.33 175.465 118.453 175.626 118.504 175.815C118.551 176.003 118.525 176.202 118.431 176.372L118.064 177.01L116.788 176.277L117.155 175.639ZM107.161 196.11L106.795 195.897L105.71 195.267L106.751 192.481L109.06 193.815L107.161 196.11ZM104.962 198.229C104.652 198.013 104.557 197.598 104.742 197.268L105.108 196.631L106.384 197.364L106.017 197.994C105.915 198.173 105.742 198.299 105.541 198.344C105.34 198.388 105.13 198.347 104.962 198.229ZM109.896 192.613L107.359 191.146L113.225 180.984L115.762 182.45L109.896 192.613ZM116.495 181.182L113.958 179.715L115.425 177.178L117.961 178.645L116.495 181.182Z" fill="#39519D"/>
<path d="M87.5699 197.862L84.9747 200.451L83.4202 198.896C83.1342 198.612 82.6723 198.612 82.3863 198.896C82.2474 199.034 82.1693 199.221 82.1693 199.417C82.1693 199.612 82.2474 199.8 82.3863 199.937L83.9408 201.492C84.2157 201.765 84.5873 201.918 84.9747 201.917C85.3642 201.919 85.739 201.766 86.0158 201.492L88.6039 198.896C88.853 198.605 88.8362 198.172 88.5655 197.901C88.2945 197.63 87.861 197.613 87.5699 197.862Z" fill="#39519D"/>
<path d="M78.9329 199.835C78.9329 203.277 81.7232 206.067 85.1651 206.067C88.6071 206.067 91.3974 203.277 91.3974 199.835C91.3974 199.43 91.0691 199.101 90.6642 199.101C90.2593 199.101 89.931 199.43 89.931 199.835C89.931 202.467 87.7972 204.6 85.1651 204.6C82.533 204.6 80.3993 202.467 80.3993 199.835C80.3993 197.203 82.533 195.069 85.1651 195.069C86.1969 195.066 87.2011 195.401 88.0246 196.022C88.3486 196.265 88.8083 196.199 89.051 195.875C89.2941 195.551 89.2286 195.092 88.9046 194.849C87.0161 193.433 84.4892 193.205 82.378 194.26C80.2665 195.316 78.9329 197.474 78.9329 199.835Z" fill="#39519D"/>
<path d="M102.396 170.873C102.8 170.873 103.129 170.545 103.129 170.14C103.129 169.735 102.8 169.407 102.396 169.407H83.3321C82.9272 169.407 82.5989 169.735 82.5989 170.14V173.073C82.5989 173.478 82.9272 173.806 83.3321 173.806H102.396C102.8 173.806 103.129 173.478 103.129 173.073C103.129 172.668 102.8 172.34 102.396 172.34H84.0653V170.873H102.396Z" fill="#39519D"/>
<path d="M85.5317 175.272C85.1268 175.272 84.7985 175.6 84.7985 176.005C84.7985 176.41 85.1268 176.738 85.5317 176.738H100.196C100.601 176.738 100.929 176.41 100.929 176.005C100.929 175.6 100.601 175.272 100.196 175.272H85.5317Z" fill="#39519D"/>
<path d="M104.595 180.405H88.4645C88.0596 180.405 87.7313 180.733 87.7313 181.138C87.7313 181.543 88.0596 181.871 88.4645 181.871H104.595C105 181.871 105.328 181.543 105.328 181.138C105.328 180.733 105 180.405 104.595 180.405Z" fill="#39519D"/>
<path d="M97.263 185.537C97.263 185.132 96.9347 184.804 96.5298 184.804H81.8657C81.4607 184.804 81.1324 185.132 81.1324 185.537C81.1324 185.942 81.4607 186.27 81.8657 186.27H96.5298C96.9347 186.27 97.263 185.942 97.263 185.537Z" fill="#39519D"/>
<path d="M104.595 184.804H99.4627C99.0578 184.804 98.7295 185.132 98.7295 185.537C98.7295 185.942 99.0578 186.27 99.4627 186.27H104.595C105 186.27 105.328 185.942 105.328 185.537C105.328 185.132 105 184.804 104.595 184.804Z" fill="#39519D"/>
<path d="M89.1977 189.936C89.6026 189.936 89.9309 189.608 89.9309 189.203C89.9309 188.798 89.6026 188.47 89.1977 188.47H81.8657C81.4607 188.47 81.1324 188.798 81.1324 189.203C81.1324 189.608 81.4607 189.936 81.8657 189.936H89.1977Z" fill="#39519D"/>
<path d="M92.1305 189.936H97.263C97.6679 189.936 97.9962 189.608 97.9962 189.203C97.9962 188.798 97.6679 188.47 97.263 188.47H92.1305C91.7256 188.47 91.3973 188.798 91.3973 189.203C91.3973 189.608 91.7256 189.936 92.1305 189.936Z" fill="#39519D"/>
<path d="M108.994 198.735C108.589 198.735 108.261 199.063 108.261 199.468V206.8C108.261 207.205 107.933 207.533 107.528 207.533H78.1996C77.7947 207.533 77.4664 207.205 77.4664 206.8V167.207C77.4664 166.802 77.7947 166.474 78.1996 166.474H107.528C107.933 166.474 108.261 166.802 108.261 167.207V180.977C108.261 181.382 108.589 181.71 108.994 181.71C109.399 181.71 109.728 181.382 109.728 180.977V167.207C109.728 165.992 108.743 165.007 107.528 165.007H78.1996C76.9849 165.007 76 165.992 76 167.207V206.8C76 208.015 76.9849 209 78.1996 209H107.528C108.743 209 109.728 208.015 109.728 206.8V199.468C109.728 199.063 109.399 198.735 108.994 198.735Z" fill="#39519D"/>
</g>
<path d="M320.56 202.931H281.44C280.092 202.931 279 201.839 279 200.49V173.509C279 172.161 280.092 171.069 281.44 171.069H320.56C321.908 171.069 323 172.161 323 173.509V200.49C323 201.839 321.908 202.931 320.56 202.931Z" fill="#F0C41B"/>
<path d="M323 174.862H279V180.931H323V174.862Z" fill="#806F5E"/>
<path d="M290.379 186.241H283.552C283.133 186.241 282.793 185.901 282.793 185.483C282.793 185.064 283.133 184.724 283.552 184.724H290.379C290.798 184.724 291.138 185.064 291.138 185.483C291.138 185.901 290.798 186.241 290.379 186.241Z" fill="#F9EAB0"/>
<path d="M300.241 186.241H293.414C292.995 186.241 292.655 185.901 292.655 185.483C292.655 185.064 292.995 184.724 293.414 184.724H300.241C300.66 184.724 301 185.064 301 185.483C301 185.901 300.66 186.241 300.241 186.241Z" fill="#F9EAB0"/>
<path d="M284.31 190.034H283.552C283.133 190.034 282.793 189.694 282.793 189.276C282.793 188.857 283.133 188.517 283.552 188.517H284.31C284.729 188.517 285.069 188.857 285.069 189.276C285.069 189.694 284.729 190.034 284.31 190.034Z" fill="#F9EAB0"/>
<path d="M288.862 190.034H287.345C286.926 190.034 286.586 189.694 286.586 189.276C286.586 188.857 286.926 188.517 287.345 188.517H288.862C289.281 188.517 289.621 188.857 289.621 189.276C289.621 189.694 289.281 190.034 288.862 190.034Z" fill="#F9EAB0"/>
<path d="M292.655 190.034H291.897C291.478 190.034 291.138 189.694 291.138 189.276C291.138 188.857 291.478 188.517 291.897 188.517H292.655C293.074 188.517 293.414 188.857 293.414 189.276C293.414 189.694 293.074 190.034 292.655 190.034Z" fill="#F9EAB0"/>
<path d="M297.207 190.034H295.69C295.271 190.034 294.931 189.694 294.931 189.276C294.931 188.857 295.271 188.517 295.69 188.517H297.207C297.626 188.517 297.966 188.857 297.966 189.276C297.966 189.694 297.626 190.034 297.207 190.034Z" fill="#F9EAB0"/>
<path d="M300.241 190.034C300.044 190.034 299.847 189.951 299.703 189.814C299.566 189.67 299.483 189.48 299.483 189.276C299.483 189.078 299.566 188.881 299.703 188.737C299.983 188.456 300.492 188.456 300.78 188.737C300.917 188.881 301 189.078 301 189.276C301 189.473 300.917 189.67 300.78 189.814C300.636 189.951 300.439 190.034 300.241 190.034Z" fill="#F9EAB0"/>
<path d="M313.897 194.586C313.897 197.1 311.859 199.138 309.345 199.138C306.831 199.138 304.793 197.1 304.793 194.586C304.793 192.072 306.831 190.034 309.345 190.034C311.859 190.034 313.897 192.072 313.897 194.586Z" fill="#DB2215"/>
<path d="M319.207 194.586C319.207 197.1 317.169 199.138 314.655 199.138C312.141 199.138 310.103 197.1 310.103 194.586C310.103 192.072 312.141 190.034 314.655 190.034C317.169 190.034 319.207 192.072 319.207 194.586Z" fill="#245EA9"/>
<defs>
<clipPath id="clip0">
<rect width="44" height="44" fill="white" transform="translate(76 29)"/>
</clipPath>
<clipPath id="clip1">
<rect width="44" height="44" fill="white" transform="translate(279 29)"/>
</clipPath>
<clipPath id="clip2">
<rect width="44" height="44" fill="white" transform="translate(76 165)"/>
</clipPath>
</defs>
</svg>
