<svg width="40" height="41" viewBox="0 0 40 41" fill="none" xmlns="http://www.w3.org/2000/svg">
<g clip-path="url(#clip0)">
<path d="M26.154 21.7588L31.5386 21.7588C32.1797 21.7588 32.7247 21.9831 33.1735 22.4319C33.622 22.8806 33.8465 23.4255 33.8465 24.0667L33.8465 24.8356C33.8465 26.5344 33.2455 27.9846 32.0434 29.1867C30.8414 30.3883 29.391 30.9894 27.6923 30.9894L26.154 30.9894C25.7374 30.9894 25.3769 31.1417 25.0723 31.4461C24.7679 31.7506 24.6156 32.1111 24.6156 32.5278L24.6156 35.605C24.6156 36.0216 24.7679 36.3823 25.0723 36.6869C25.3768 36.991 25.7373 37.1436 26.154 37.1436L27.6923 37.1436C29.3591 37.1436 30.9494 36.8187 32.464 36.17C33.9784 35.5208 35.2883 34.6433 36.3942 33.5374C37.5001 32.432 38.3773 31.122 39.0264 29.6074C39.6754 28.093 40 26.5023 40 24.8357L40 7.913C40 6.63028 39.5515 5.54111 38.654 4.64333C37.7565 3.74605 36.6665 3.29745 35.3845 3.29745L26.1534 3.29745C24.8715 3.29745 23.7818 3.74605 22.8842 4.64333C21.9869 5.54112 21.5382 6.63028 21.5382 7.91301L21.5382 17.1433C21.5382 18.4258 21.9869 19.515 22.8848 20.4129C23.782 21.31 24.8721 21.7588 26.154 21.7588Z" fill="#2B2B2B"/>
<path d="M1.34543 20.4129C2.24263 21.31 3.33238 21.7588 4.6146 21.7588L9.99919 21.7588C10.6399 21.7588 11.1854 21.9831 11.6334 22.4319C12.0824 22.8806 12.3065 23.4255 12.3065 24.0667L12.3065 24.8356C12.3065 26.5344 11.7054 27.9846 10.5039 29.1867C9.30238 30.3883 7.85202 30.9894 6.15252 30.9894L4.61451 30.9894C4.19783 30.9894 3.83713 31.1417 3.53276 31.4461C3.22856 31.7506 3.07575 32.1111 3.07575 32.5278L3.07575 35.605C3.07575 36.0216 3.22848 36.3823 3.53277 36.6869C3.83705 36.991 4.19774 37.1436 4.61452 37.1436L6.15252 37.1436C7.82028 37.1436 9.41015 36.8187 10.9252 36.17C12.4394 35.5208 13.7489 34.6434 14.8548 33.5374C15.9607 32.432 16.8383 31.122 17.4872 29.6074C18.1361 28.093 18.4611 26.5023 18.4611 24.8357L18.4611 7.91301C18.4611 6.63028 18.0121 5.54112 17.1149 4.64334C16.2177 3.74606 15.1279 3.29746 13.8458 3.29746L4.6151 3.29746C3.33288 3.29746 2.24321 3.74606 1.34602 4.64334C0.448155 5.54112 0.000148008 6.63028 0.00014812 7.91301L0.000148929 17.1433C6.51175e-05 18.4259 0.448157 19.515 1.34543 20.4129Z" fill="#2B2B2B"/>
</g>
<defs>
<clipPath id="clip0">
<rect width="40" height="40" fill="white" transform="translate(40 40.2207) rotate(180)"/>
</clipPath>
</defs>
</svg>
