<svg width="40" height="41" viewBox="0 0 40 41" fill="none" xmlns="http://www.w3.org/2000/svg">
<path d="M13.846 19.1377H8.46136C7.82029 19.1377 7.27529 18.9134 6.82653 18.4646C6.37801 18.0158 6.15346 17.471 6.15346 16.8298V16.0609C6.15346 14.3621 6.75454 12.9119 7.9566 11.7098C9.15859 10.5082 10.609 9.90708 12.3077 9.90708H13.846C14.2626 9.90708 14.6231 9.75477 14.9277 9.4504C15.2321 9.14586 15.3844 8.78542 15.3844 8.36873V5.29153C15.3844 4.87493 15.2321 4.51415 14.9277 4.20961C14.6232 3.90549 14.2627 3.75293 13.846 3.75293H12.3077C10.6409 3.75293 9.05065 4.07776 7.53605 4.72649C6.02161 5.37564 4.71169 6.25313 3.60578 7.35905C2.49995 8.46446 1.62271 9.77447 0.973642 11.2891C0.324576 12.8035 0 14.3941 0 16.0608V32.9835C0 34.2662 0.448512 35.3554 1.34596 36.2532C2.24349 37.1504 3.33349 37.599 4.61546 37.599H13.8466C15.1285 37.599 16.2182 37.1504 17.1158 36.2532C18.0131 35.3554 18.4618 34.2662 18.4618 32.9835V23.7531C18.4618 22.4707 18.0131 21.3815 17.1152 20.4836C16.218 19.5864 15.1279 19.1377 13.846 19.1377Z" fill="#2B2B2B"/>
<path d="M38.6546 20.4836C37.7574 19.5864 36.6677 19.1377 35.3855 19.1377H30.0009C29.3601 19.1377 28.8146 18.9134 28.3666 18.4646C27.9177 18.0158 27.6936 17.471 27.6936 16.8298V16.0609C27.6936 14.3621 28.2946 12.9119 29.4961 11.7098C30.6977 10.5082 32.148 9.90708 33.8475 9.90708H35.3855C35.8022 9.90708 36.1629 9.75477 36.4673 9.4504C36.7715 9.14586 36.9243 8.78542 36.9243 8.36873V5.29153C36.9243 4.87493 36.7716 4.51415 36.4673 4.20961C36.163 3.90549 35.8023 3.75293 35.3855 3.75293H33.8475C32.1798 3.75293 30.5899 4.07776 29.0749 4.72649C27.5607 5.37564 26.2512 6.25313 25.1453 7.35905C24.0394 8.46446 23.1617 9.77447 22.5129 11.2891C21.864 12.8035 21.539 14.3941 21.539 16.0608V32.9835C21.539 34.2662 21.9879 35.3554 22.8851 36.2532C23.7824 37.1504 24.8722 37.599 26.1543 37.599H35.385C36.6672 37.599 37.7568 37.1504 38.654 36.2532C39.5519 35.3554 39.9999 34.2662 39.9999 32.9835V23.7531C40 22.4706 39.5519 21.3815 38.6546 20.4836Z" fill="#2B2B2B"/>
</svg>
