<svg width="45" height="45" viewBox="0 0 45 45" fill="none" xmlns="http://www.w3.org/2000/svg">
<path d="M42.8906 38.6719H39.375V7.73438C39.9339 7.73271 40.4695 7.50993 40.8647 7.11471C41.2599 6.71949 41.4827 6.18393 41.4844 5.625V2.10938C41.4844 1.92289 41.4103 1.74405 41.2784 1.61219C41.1466 1.48033 40.9677 1.40625 40.7812 1.40625H4.21875C4.03227 1.40625 3.85343 1.48033 3.72157 1.61219C3.5897 1.74405 3.51562 1.92289 3.51562 2.10938V5.625C3.51729 6.18393 3.74007 6.71949 4.13529 7.11471C4.53051 7.50993 5.06607 7.73271 5.625 7.73438V38.6719H2.10938C1.92289 38.6719 1.74405 38.746 1.61219 38.8778C1.48033 39.0097 1.40625 39.1885 1.40625 39.375V42.8906C1.40625 43.0771 1.48033 43.2559 1.61219 43.3878C1.74405 43.5197 1.92289 43.5938 2.10938 43.5938H42.8906C43.0771 43.5938 43.2559 43.5197 43.3878 43.3878C43.5197 43.2559 43.5938 43.0771 43.5938 42.8906V39.375C43.5938 39.1885 43.5197 39.0097 43.3878 38.8778C43.2559 38.746 43.0771 38.6719 42.8906 38.6719ZM4.92188 5.625V2.8125H40.0781V5.625C40.0781 5.81148 40.004 5.99032 39.8722 6.12218C39.7403 6.25405 39.5615 6.32812 39.375 6.32812H5.625C5.43852 6.32812 5.25968 6.25405 5.12782 6.12218C4.99595 5.99032 4.92188 5.81148 4.92188 5.625ZM37.9688 7.73438V38.6719H7.03125V7.73438H37.9688ZM42.1875 42.1875H2.8125V40.0781H42.1875V42.1875Z" fill="#BA1117"/>
<path d="M36.5625 8.4375H8.4375C8.25102 8.4375 8.07218 8.51158 7.94032 8.64344C7.80845 8.7753 7.73438 8.95414 7.73438 9.14062V37.2656C7.73438 37.4521 7.80845 37.6309 7.94032 37.7628C8.07218 37.8947 8.25102 37.9688 8.4375 37.9688H36.5625C36.749 37.9688 36.9278 37.8947 37.0597 37.7628C37.1915 37.6309 37.2656 37.4521 37.2656 37.2656V9.14062C37.2656 8.95414 37.1915 8.7753 37.0597 8.64344C36.9278 8.51158 36.749 8.4375 36.5625 8.4375ZM21.7969 36.5625H9.14062V23.2031H21.7969V36.5625ZM21.7969 21.7969H9.14062V9.84375H21.7969V21.7969ZM35.8594 36.5625H23.2031V23.2031H35.8594V36.5625ZM35.8594 21.7969H23.2031V9.84375H35.8594V21.7969Z" fill="#BA1117"/>
<path d="M10.7505 14.2681L13.5626 11.4559L14.5569 12.4501L11.7447 15.2623L10.7505 14.2681Z" fill="#BA1117"/>
<path d="M10.7505 17.7837L17.0778 11.4565L18.072 12.4507L11.7448 18.7779L10.7505 17.7837Z" fill="#BA1117"/>
</svg>
